<svg width="30" height="28" viewBox="0 0 30 28" fill="none" xmlns="http://www.w3.org/2000/svg">
<path d="M28.6198 2.46498L26.0608 0.724977C25.7212 0.496173 25.3049 0.410777 24.9026 0.487377C24.5004 0.563976 24.1446 0.79637 23.9128 1.13398L11.3678 19.634L5.60283 13.867C5.31265 13.5776 4.9196 13.4152 4.50983 13.4152C4.10006 13.4152 3.707 13.5776 3.41683 13.867L1.22583 16.058C0.936678 16.3493 0.774414 16.743 0.774414 17.1535C0.774414 17.5639 0.936678 17.9577 1.22583 18.249L10.0908 27.114C10.6191 27.6411 11.3244 27.953 12.0698 27.989C12.446 27.9665 12.8115 27.8551 13.1363 27.6639C13.461 27.4727 13.7357 27.2071 13.9378 26.889L29.0378 4.61498C29.152 4.44652 29.2318 4.25716 29.2727 4.05777C29.3135 3.85838 29.3145 3.65289 29.2756 3.45311C29.2368 3.25333 29.1589 3.06319 29.0463 2.89361C28.9338 2.72404 28.7888 2.57837 28.6198 2.46498Z" fill="#023CDC"/>
</svg>
